HIERARCHY
ROOT Hips
{
	OFFSET 0.00000 0.00000 0.00000
	CHANNELS 6 Xposition Yposition Zposition Zrotation Yrotation Xrotation 
	JOINT LHipJoint
	{
		OFFSET 0 0 0
		CHANNELS 3 Zrotation Yrotation Xrotation
		JOINT LeftHip
		{
			OFFSET 1.24777 -1.64261 0.71711
			CHANNELS 3 Zrotation Yrotation Xrotation
			JOINT LeftKnee
			{
				OFFSET 2.49329 -6.85026 0.00000
				CHANNELS 3 Zrotation Yrotation Xrotation
				JOINT LeftAnkle
				{
					OFFSET 2.36770 -6.50520 0.00000
					CHANNELS 3 Zrotation Yrotation Xrotation
					JOINT LeftToe
					{
						OFFSET 0.14820 -0.40718 2.21395
						CHANNELS 3 Zrotation Yrotation Xrotation
						End Site
						{
							OFFSET 0.00000 -0.00000 1.13491
						}
					}
				}
			}
		}
	}
	JOINT RHipJoint
	{
		OFFSET 0 0 0
		CHANNELS 3 Zrotation Yrotation Xrotation
		JOINT RightHip
		{
			OFFSET -1.18320 -1.64261 0.71711
			CHANNELS 3 Zrotation Yrotation Xrotation
			JOINT RightKnee
			{
				OFFSET -2.46559 -6.77417 0.00000
				CHANNELS 3 Zrotation Yrotation Xrotation
				JOINT RightAnkle
				{
					OFFSET -2.38450 -6.55136 0.00000
					CHANNELS 3 Zrotation Yrotation Xrotation
					JOINT RightToe
					{
						OFFSET -0.17454 -0.47954 2.02925
						CHANNELS 3 Zrotation Yrotation Xrotation
						End Site
						{
							OFFSET -0.00000 -0.00000 1.05076
						}
					}
				}
			}
		}
	}
	JOINT lowerback
	{
		OFFSET 0 0 0
		CHANNELS 3 Zrotation Yrotation Xrotation
		JOINT Chest
		{
			OFFSET -0.02305 1.98660 0.00319
			CHANNELS 3 Zrotation Yrotation Xrotation
			JOINT Chest2
			{
				OFFSET -0.00718 1.99033 -0.00533
				CHANNELS 3 Zrotation Yrotation Xrotation
				JOINT lowerneck
				{
					OFFSET 0 0 0
					CHANNELS 3 Zrotation Yrotation Xrotation
					JOINT Neck
					{
						OFFSET 0.00095 1.61015 0.10698
						CHANNELS 3 Zrotation Yrotation Xrotation
						JOINT Head
						{
							OFFSET -0.01060 1.59924 0.01317
							CHANNELS 3 Zrotation Yrotation Xrotation
							End Site
							{
								OFFSET -0.00458 1.63304 -0.00592
							}
						}
					}
				}
				JOINT LeftCollar
				{
					OFFSET 0 0 0
					CHANNELS 3 Zrotation Yrotation Xrotation
					JOINT LeftShoulder
					{
						OFFSET 3.05381 1.47088 -0.01697
CHANNELS 3 Zrotation Xrotation Yrotation
						JOINT LeftElbow
						{
OFFSET 0 -4.251060 0.000000
CHANNELS 3 Zrotation Xrotation Yrotation
							JOINT LeftWrist
							{
OFFSET 0 -3.275920 0.000000
CHANNELS 3 Zrotation Xrotation Yrotation
								JOINT lhand
								{
									OFFSET 0 0 0
CHANNELS 3 Zrotation Xrotation Yrotation
									JOINT LFingers
									{
OFFSET 0 -0.657810 0.000000
CHANNELS 3 Zrotation Xrotation Yrotation
										End Site
										{
OFFSET 0 -0.530340 0.000000
										}
									}
								}
								JOINT LThumb
								{
OFFSET 0 0.000000 0.000000
CHANNELS 3 Zrotation Xrotation Yrotation
									End Site
									{
OFFSET 0 -0.538440 0.538440
									}
								}
							}
						}
					}
				}
				JOINT RightCollar
				{
					OFFSET 0 0 0
					CHANNELS 3 Zrotation Yrotation Xrotation
					JOINT RightShoulder
					{
						OFFSET -2.83695 1.31619 -0.22674
CHANNELS 3 Zrotation Xrotation Yrotation
						JOINT RightElbow
						{
OFFSET 0 -4.460730 0.000000
CHANNELS 3 Zrotation Xrotation Yrotation
							JOINT RightWrist
							{
OFFSET 0 -3.444160 0.000000
CHANNELS 3 Zrotation Xrotation Yrotation
								JOINT rhand
								{
									OFFSET 0 0 0
CHANNELS 3 Zrotation Xrotation Yrotation
									JOINT RFingers
									{
OFFSET 0 -0.616510 0.000000
CHANNELS 3 Zrotation Xrotation Yrotation
										End Site
										{
OFFSET 0 -0.497050 0.000000
										}
									}
								}
								JOINT RThumb
								{
OFFSET 0 0.000000 0.000000
CHANNELS 3 Zrotation Xrotation Yrotation
									End Site
									{
OFFSET 0 -0.504640 0.504640
									}
								}
							}
						}
					}
				}
			}
		}
	}
}
MOTION
Frames: 5
Frame Time: 0.008333333333333333
18.572400 16.827600 -17.973100 -1.040700 -2.171700 5.952200 0.000000 0.000000 0.000000 -20.294200 -2.734100 -19.879100 3.415600 11.339300 33.432900 4.706500 -10.768200 -39.590500 5.189600 13.594200 41.635500 0.000000 0.000000 0.000000 23.079000 8.644600 -13.807600 -2.945400 -10.606200 30.963000 -2.661300 -4.853800 -32.819100 -1.098100 -6.658800 18.708400 -4.147500 1.969200 -2.975600 2.920900 2.728300 -1.323100 5.422200 1.401100 -0.033400 2.096300 -1.700800 -10.878000 -2.960400 -2.401400 1.327700 -1.444100 -1.277900 2.247300 0.000000 -0.000000 0.000000 4.136500 14.647900 -62.665100 36.356600 -45.756900 15.777400 -26.096000 -22.109500 -16.107000 0.000000 0.000000 0.000000 -7.125000 0.000000 0.000000 -45.358400 41.248400 -5.556900 0.000000 -0.000000 0.000000 -6.475900 24.343700 40.015100 -33.844200 -43.969000 -14.004800 -10.206900 27.561200 25.826400 0.000000 0.000000 0.000000 7.125000 0.000000 -0.000000 20.806000 54.932200 -5.243400
18.568005 16.831756 -17.986379 -0.960738 -2.157690 6.024486 0.000000 0.000000 0.000000 -20.335815 -2.640761 -20.139648 3.434893 11.367741 33.530500 4.515530 -10.833536 -38.725143 5.103361 13.498992 41.266747 0.000000 0.000000 0.000000 23.025703 9.012040 -13.748473 -2.928451 -10.578284 30.870600 -2.614184 -5.242943 -32.733948 -1.075758 -6.592954 18.514937 -4.025359 1.989264 -2.873039 2.929649 2.748594 -1.309393 5.358173 1.411485 -0.073519 2.359258 -0.604448 -10.871450 -3.714226 -0.934176 1.671527 -1.668526 -0.571708 2.406777 0.000000 0.000000 0.000000 4.866475 15.110263 -63.446553 38.710705 -47.284918 17.486655 -26.822468 -22.511474 -15.825876 0.000000 0.000000 0.000000 -7.125000 0.000000 0.000000 -45.644603 40.915045 -6.135068 0.000000 0.000000 0.000000 -7.555700 25.776703 41.175528 -38.912286 -47.403995 -17.636721 -6.412674 28.921566 25.851572 0.000000 0.000000 0.000000 7.125000 0.000000 0.000000 24.517923 54.242702 -5.837354
18.568139 16.837608 -18.005311 -0.888902 -2.094199 6.154358 0.000000 0.000000 0.000000 -20.364307 -2.689058 -20.484853 3.461724 11.407410 33.666671 4.283338 -10.779127 -37.658936 4.977452 13.358295 40.724966 0.000000 0.000000 0.000000 22.933682 9.261497 -13.854390 -2.921006 -10.566064 30.829945 -2.575265 -5.533924 -32.652196 -1.073490 -6.586271 18.495383 -3.825499 2.095240 -2.797439 2.953032 2.883094 -1.343480 5.267025 1.480885 -0.158448 2.792992 0.747741 -10.392263 -4.706927 0.868310 1.677492 -1.976533 0.300542 2.400893 0.000000 0.000000 0.000000 5.669762 15.546147 -64.637479 41.154601 -48.736073 19.303739 -27.680558 -23.424085 -16.634598 0.000000 0.000000 0.000000 -7.125000 0.000000 0.000000 -46.674130 41.433682 -5.538616 0.000000 0.000000 0.000000 -8.342284 26.901697 41.398899 -43.650046 -50.077576 -21.201696 -4.420293 30.105209 24.147029 0.000000 0.000000 0.000000 7.125000 0.000000 0.000000 25.368120 52.351815 -4.841212
18.569269 16.838766 -18.029442 -0.829444 -1.981099 6.306199 0.000000 0.000000 0.000000 -20.379955 -2.733469 -20.878637 3.493240 11.453700 33.825768 4.028432 -10.774277 -36.458018 4.851380 13.214396 40.176434 0.000000 0.000000 0.000000 22.836404 9.550443 -14.086254 -2.946897 -10.608534 30.970817 -2.545549 -5.855646 -32.641096 -1.053565 -6.526554 18.320068 -3.583021 2.213703 -2.685989 2.985065 3.032972 -1.398227 5.158395 1.559091 -0.283832 3.211983 2.131643 -9.846207 -5.693829 2.726005 1.759715 -2.283512 1.203478 2.440137 0.000000 0.000000 0.000000 6.441989 15.875829 -65.877315 43.548986 -50.034864 21.121446 -28.742127 -24.411042 -17.688583 0.000000 0.000000 0.000000 -7.125000 0.000000 0.000000 -48.000928 42.106885 -4.688189 0.000000 0.000000 0.000000 -9.039663 27.903264 41.544270 -48.591389 -52.401454 -25.056239 -1.867813 29.949554 22.827450 0.000000 0.000000 0.000000 7.125000 0.000000 0.000000 26.968720 50.751871 -4.075222
18.571047 16.834269 -18.060576 -0.763048 -1.685234 6.449421 0.000000 0.000000 0.000000 -20.384313 -2.803164 -21.383572 3.559499 11.549925 34.157816 3.730374 -10.887520 -35.010969 4.683480 13.018035 39.436386 0.000000 0.000000 0.000000 22.733441 9.829591 -14.359722 -2.984885 -10.670499 31.176590 -2.506637 -6.329014 -32.658995 -1.011918 -6.400281 17.950283 -3.319172 2.340637 -2.502104 3.036776 3.193275 -1.464770 5.054088 1.643639 -0.462048 3.651404 3.587494 -9.162636 -6.708724 4.694647 1.890504 -2.602873 2.165479 2.508186 0.000000 0.000000 0.000000 7.160482 15.978559 -67.312489 45.629170 -51.071844 22.727476 -29.746379 -25.243549 -18.902936 0.000000 0.000000 0.000000 -7.125000 0.000000 0.000000 -49.429190 42.901707 -3.552764 0.000000 0.000000 0.000000 -9.567958 28.678901 41.488269 -53.220362 -54.209438 -28.768070 0.658974 28.387914 21.895474 0.000000 0.000000 0.000000 7.125000 0.000000 0.000000 28.728115 49.538617 -3.470726
